<?xml version="1.0" standalone="no"?>
<!DOCTYPE svg PUBLIC "-//W3C//DTD SVG 20010904//EN"
 "http://www.w3.org/TR/2001/REC-SVG-20010904/DTD/svg10.dtd">
<svg version="1.0" xmlns="http://www.w3.org/2000/svg"
 width="300.000000pt" height="300.000000pt" viewBox="0 0 300.000000 300.000000"
 preserveAspectRatio="xMidYMid meet">
<metadata>
Created by potrace 1.10, written by Peter Selinger 2001-2011
</metadata>
<g transform="translate(0.000000,300.000000) scale(0.100000,-0.100000)"
fill="#ffffff" stroke="none">
<path d="M1240 1629 l0 -160 30 3 31 3 2 158 2 157 -32 0 -33 0 0 -161z"/>
<path d="M1860 1719 c0 -64 -2 -70 -17 -64 -44 19 -70 16 -101 -10 -28 -23
-32 -33 -32 -76 0 -41 5 -54 26 -74 31 -29 79 -33 106 -8 17 15 18 15 18 0 0
-12 9 -17 30 -17 l29 0 3 160 3 160 -32 0 -33 0 0 -71z m-10 -124 c17 -20 5
-62 -21 -70 -24 -8 -59 19 -59 45 0 37 55 55 80 25z"/>
<path d="M2150 1630 l0 -160 33 0 32 0 3 160 2 160 -35 0 -35 0 0 -160z"/>
<path d="M952 1768 c-28 -28 -1 -75 37 -63 25 8 34 31 21 56 -12 21 -40 25
-58 7z"/>
<path d="M1632 1768 c-28 -28 -1 -75 37 -63 25 8 34 31 21 56 -12 21 -40 25
-58 7z"/>
<path d="M570 1643 c-67 -60 -28 -173 61 -173 11 0 29 5 40 10 13 8 19 7 19 0
0 -7 13 -10 31 -8 l31 3 1 93 2 93 -40 -1 c-22 0 -56 3 -76 6 -31 5 -42 1 -69
-23z m114 -49 c20 -51 -17 -88 -60 -59 -27 17 -29 27 -14 56 13 24 65 26 74 3z"/>
<path d="M866 1653 c-13 -13 -20 -15 -23 -5 -3 6 -18 12 -34 12 l-29 0 0 -96
0 -95 33 3 c32 3 32 4 29 50 -4 65 11 91 49 86 16 -3 29 -2 29 2 0 3 7 15 15
26 13 17 14 9 8 -73 l-6 -93 37 0 36 0 0 95 0 95 -27 0 c-16 0 -44 3 -63 6
-26 4 -40 1 -54 -13z"/>
<path d="M1084 1660 c-33 -13 -54 -50 -54 -96 0 -35 5 -47 31 -68 40 -34 97
-35 135 -2 l28 23 -23 13 c-17 8 -26 9 -34 1 -22 -22 -77 -6 -77 21 0 4 32 8
71 8 77 0 72 -6 53 60 -11 39 -81 60 -130 40z m60 -36 c30 -12 18 -34 -19 -34
-37 0 -43 8 -23 28 14 14 20 14 42 6z"/>
<path d="M1386 1663 c-2 -2 16 -39 40 -81 24 -42 47 -85 50 -94 3 -10 15 -18
27 -18 17 0 32 19 70 90 27 50 51 90 54 90 3 0 4 -39 2 -87 l-4 -88 33 -3 32
-3 0 95 0 96 -71 0 -70 0 -21 -51 -22 -51 -22 50 c-20 44 -26 50 -58 54 -20 2
-38 2 -40 1z"/>
<path d="M1988 1654 c-86 -46 -50 -184 47 -184 38 0 95 24 95 40 0 17 -41 33
-53 21 -22 -22 -77 -6 -77 21 0 4 32 8 70 8 75 0 79 4 60 54 -10 28 -57 56
-92 56 -13 -1 -35 -7 -50 -16z m80 -36 c21 -21 13 -28 -28 -28 -22 0 -40 4
-40 8 0 14 23 32 40 32 9 0 21 -5 28 -12z"/>
<path d="M2280 1658 c-35 -19 -52 -56 -46 -103 8 -68 72 -104 129 -74 16 9 22
9 25 0 2 -6 17 -11 33 -11 l29 0 0 95 0 96 -42 -1 c-24 0 -56 2 -73 5 -16 3
-41 0 -55 -7z m100 -68 c21 -38 -22 -80 -61 -60 -19 10 -27 59 -12 73 15 15
63 7 73 -13z"/>
<path d="M2487 1543 c-4 -3 -7 -19 -7 -34 0 -22 6 -30 25 -35 43 -11 73 34 43
64 -13 13 -50 16 -61 5z"/>
</g>
</svg>
